# AST/ASF file generated using VICON BodyLanguage
# -----------------------------------------------
:version 1.10
:name VICON
:units
  mass 1.0
  length 0.45
  angle deg
:documentation
   .ast/.asf automatically generated from VICON data using
   VICON BodyBuilder and BodyLanguage model FoxedUp or BRILLIANT.MOD
:root
   order TX TY TZ RX RY RZ
   axis XYZ
   position 0 0 0  
   orientation 0 0 0 
:bonedata
  begin
     id 1 
     name lhipjoint
     direction 0.635376 -0.686425 0.353719 
     length 2.47244 
     axis 0 0 0  XYZ
  end
  begin
     id 2 
     name lfemur
     direction 0.34202 -0.939693 0  
     length 7.25268  
     axis 0 0 20  XYZ
    dof rx ry rz
    limits (-160.0 20.0)
           (-70.0 70.0)
           (-60.0 70.0)
  end
  begin
     id 3 
     name ltibia
     direction 0.34202 -0.939693 0   
     length 7.6767   
     axis 0 0 20   XYZ
    dof rx
    limits (-10.0 170.0)
  end
  begin
     id 4 
     name lfoot
     direction 0.0803374 -0.220725 0.972022   
     length 2.22945   
     axis -90 7.62852e-016 20   XYZ
    dof rx rz
    limits (-45.0 90.0)
           (-70.0 20.0)
  end
  begin
     id 5 
     name ltoes
     direction 1.53579e-011 -4.21994e-011 1   
     length 1.11848   
     axis -90 7.62852e-016 20   XYZ
    dof rx
    limits (-90.0 20.0)
  end
  begin
     id 6 
     name rhipjoint
     direction -0.664428 -0.664335 0.342336   
     length 2.55466  
     axis 0 0 0  XYZ 
  end
  begin
     id 7 
     name rfemur
     direction -0.34202 -0.939693 0   
     length 6.83172   
     axis 0 0 -20   XYZ
    dof rx ry rz
    limits (-160.0 20.0)
           (-70.0 70.0)
           (-70.0 60.0)
  end
  begin
     id 8 
     name rtibia
     direction -0.34202 -0.939693 0   
     length 7.62692   
     axis 0 0 -20   XYZ
    dof rx
    limits (-10.0 170.0)
 end
 begin
     id 9 
     name rfoot
     direction -0.0949276 -0.260811 0.960711   
     length 2.19684  
     axis -90 -7.62852e-016 -20   XYZ
    dof rx rz
    limits (-45.0 90.0)
           (-20.0 70.0)
  end
  begin
     id 10 
     name rtoes
     direction -1.53543e-011 -4.2183e-011 1   
     length 1.09848   
     axis -90 -7.62852e-016 -20   XYZ
    dof rx
    limits (-90.0 20.0)
  end
  begin
     id 11 
     name lowerback
     direction 0.0118782 0.999815 -0.0151555   
     length 2.15772   
     axis 0 0 0   XYZ
    dof rx ry rz
    limits (-20.0 45.0)
           (-30.0 30.0)
           (-30.0 30.0)
  end
  begin
     id 12 
     name upperback
     direction 0.00130825 0.999065 0.0432113   
     length 2.14863   
     axis 0 0 0   XYZ
    dof rx ry rz
    limits (-20.0 45.0)
           (-30.0 30.0)
           (-30.0 30.0)
  end
  begin
     id 13 
     name thorax
     direction -0.00347005 0.998773 0.0494011   
     length 2.14936   
     axis 0 0 0   XYZ
    dof rx ry rz
    limits (-20.0 45.0)
           (-30.0 30.0)
           (-30.0 30.0)
  end
  begin
     id 14 
     name lowerneck
     direction -0.0262159 0.99424 0.103921   
     length 1.69373   
     axis 0 0 0   XYZ
    dof rx ry rz
    limits (-20.0 45.0)
           (-30.0 30.0)
           (-30.0 30.0)
  end
  begin
     id 15 
     name upperneck
     direction 0.0353511 0.977394 -0.20845   
     length 1.70857   
     axis 0 0 0   XYZ
    dof rx ry rz
    limits (-20.0 45.0)
           (-30.0 30.0)
           (-30.0 30.0)
  end
  begin
     id 16
     name head
     direction 0.0139214 0.996594 -0.0812836  
     length 1.72777  
     axis 0 0 0   XYZ
    dof rx ry rz
    limits (-20.0 45.0)
           (-30.0 30.0)
           (-30.0 30.0)
  end
  begin
     id 17 
     name lclavicle
     direction 0.841247 0.537205 -0.0609508  
     length 3.55371  
     axis 0 0 0   XYZ
    dof ry rz
    limits (-20.0 10.0)
           (0.0 20.0)
  end
  begin
     id 18 
     name lhumerus
     direction 1 -4.48964e-011 1.60116e-018   
     length 4.91377   
     axis -180 -30 -90   XYZ
    dof rx ry rz
    limits (-60.0 90.0)
           (-90.0 90.0)
           (-90.0 90.0)
  end
  begin
     id 19
     name lradius
     direction 1 -4.48989e-011 -8.93847e-027   
     length 3.00291   
     axis -180 -30 -90   XYZ
    dof rx
    limits (-10.0 170.0)
  end
  begin
     id 20
     name lwrist
     direction 1 -4.48932e-011 -7.31504e-027   
     length 1.50145   
     axis 5.74121e-015 90 90   XYZ
    dof ry
    limits (-180.0 0.0)
 end
  begin
     id 21 
     name lhand
     direction 1 -4.48971e-011 -1.46301e-026   
     length 0.450922   
     axis 9.33524e-015 90 90   XYZ
    dof rx rz
    limits (-90.0 90.0)
           (-45.0 45.0)
  end
  begin
     id 22 
     name lfingers
     direction 1 -4.49039e-011 -2.92602e-026   
     length 0.363545   
     axis 1.86705e-014 90 90   XYZ
    dof rx
    limits (0.0 90.0)
  end
  begin
     id 23
     name lthumb
     direction 0.707107 -6.34941e-011 0.707107   
     length 0.52198   
     axis -90 45 2.85299e-015   XYZ
    dof rx rz
    limits (-45.0 45.0)
           (-45.0 45.0)
  end
  begin
     id 24 
     name rclavicle
     direction -0.825079 0.56158 -0.0622297   
     length 3.39909  
     axis 0 0 0   XYZ 
    dof ry rz
    limits (-10.0 20.0)
           (-20.0 0.0)
  end
  begin
     id 25 
     name rhumerus
     direction -1 -4.48965e-011 1.61691e-027  
     length 4.86725   
     axis -180 30 90   XYZ
    dof rx ry rz
    limits (-90.0 60.0)
           (-90.0 90.0)
           (-90.0 90.0)
  end
  begin
     id 26 
     name rradius
     direction -1 -4.48964e-011 -2.25776e-027   
     length 3.17144   
     axis -180 30 90   XYZ
    dof rx
    limits (-10.0 170.0)
  end
  begin
     id 27 
     name rwrist
     direction -1 -4.48961e-011 -7.31504e-027   
     length 1.58572   
     axis 5.74121e-015 -90 -90   XYZ
    dof ry
    limits (-180.0 0.0)
  end
  begin
     id 28
     name rhand
     direction -1 -4.49013e-011 -1.46301e-026   
     length 0.419368   
     axis 9.33524e-015 -90 -90   XYZ
    dof rx rz
    limits (-90.0 90.0)
           (-45.0 45.0)
  end
  begin
     id 29
     name rfingers
     direction -1 -4.489e-011 -2.92602e-026   
     length 0.338105   
     axis 1.86705e-014 -90 -90   XYZ
    dof rx
    limits (0.0 90.0)
  end
  begin
     id 30
     name rthumb
     direction -0.707107 -6.35022e-011 0.707107   
     length 0.485453   
     axis -90 -45 -2.85299e-015   XYZ
    dof rx rz
    limits (-45.0 45.0)
           (-45.0 45.0)
  end
:hierarchy
  begin
    root lhipjoint rhipjoint lowerback
    lhipjoint lfemur
    lfemur ltibia
    ltibia lfoot
    lfoot ltoes
    rhipjoint rfemur
    rfemur rtibia
    rtibia rfoot
    rfoot rtoes
    lowerback upperback
    upperback thorax
    thorax lowerneck lclavicle rclavicle
    lowerneck upperneck
    upperneck head
    lclavicle lhumerus
    lhumerus lradius
    lradius lwrist
    lwrist lhand lthumb
    lhand lfingers
    rclavicle rhumerus
    rhumerus rradius
    rradius rwrist
    rwrist rhand rthumb
    rhand rfingers
  end

#!OML:ASF H:\Swim 2\Project 1\Capture day 1\Session 1\male.ASF
:FULLY-SPECIFIED
:DEGREES
17
root 5.45209 14.2919 19.3748 7.50453 -3.63377 -0.759911
lowerback 1.3654 -0.957162 1.57483
upperback -4.24935 -1.20248 0.406709
thorax -5.17921 -0.654496 -0.390351
lowerneck -19.4791 -1.07261 -4.21844
upperneck 22.5467 -1.22235 3.91408
head 10.5051 -0.448954 1.92711
rclavicle -2.48838e-014 1.73937e-014
rhumerus 28.3752 22.2479 -38.7248
rradius 84.5755
rwrist -14.2175
rhand 30.4729 -10.7427
rfingers 7.12502
rthumb 54.1316 -29.4913
lclavicle -2.48838e-014 1.73937e-014
lhumerus 14.595 -14.734 53.4216
lradius 90.193
lwrist 3.96424
lhand 32.8027 18.1989
lfingers 7.12502
lthumb 56.2075 35.4266
rfemur -41.1701 -13.6049 18.7176
rtibia 76.6573
rfoot -33.5779 10.8378
rtoes -12.247
lfemur -39.1778 14.3742 -16.5738
ltibia 81.9116
lfoot -32.4935 9.77084
ltoes -12.8254
18
root 5.45533 14.2917 19.3769 7.48691 -3.63059 -0.738871
lowerback 1.36719 -0.95223 1.5706
upperback -4.24674 -1.19638 0.399
thorax -5.17743 -0.651433 -0.396321
lowerneck -19.5086 -1.07414 -4.23092
upperneck 22.6025 -1.21507 3.89271
head 10.5306 -0.449279 1.92345
rclavicle 3.16658e-015 1.63997e-014
rhumerus 28.4201 22.2163 -38.7093
rradius 84.5631
rwrist -14.2379
rhand 30.3664 -10.6961
rfingers 7.12502
rthumb 54.0361 -29.5097
lclavicle 3.16658e-015 1.63997e-014
lhumerus 14.6703 -14.6455 53.4918
lradius 90.1542
lwrist 4.01713
lhand 32.7095 18.2179
lfingers 7.12502
lthumb 56.125 35.5104
rfemur -41.1456 -13.5718 18.6709
rtibia 76.6612
rfoot -33.5575 10.8281
rtoes -12.0486
lfemur -39.1366 14.3692 -16.6115
ltibia 81.8998
lfoot -32.5349 9.7395
ltoes -12.745
19
root 5.45828 14.2911 19.379 7.47468 -3.61546 -0.723752
lowerback 1.36136 -0.951629 1.569
upperback -4.24634 -1.19589 0.395702
thorax -5.17371 -0.65118 -0.398983
lowerneck -19.5225 -1.07483 -4.23643
upperneck 22.6497 -1.20658 3.86142
head 10.55 -0.449794 1.91505
rclavicle -1.79558e-014 -1.93815e-014
rhumerus 28.4667 22.1847 -38.6931
rradius 84.5496
rwrist -14.2525
rhand 30.2585 -10.6404
rfingers 7.12502
rthumb 53.9392 -29.5194
lclavicle -1.79558e-014 -1.93815e-014
lhumerus 14.7414 -14.5531 53.573
lradius 90.1172
lwrist 4.04076
lhand 32.5975 18.2195
lfingers 7.12502
lthumb 56.0258 35.5892
rfemur -41.1191 -13.5556 18.6386
rtibia 76.6592
rfoot -33.5581 10.7967
rtoes -11.8461
lfemur -39.1111 14.3634 -16.6456
ltibia 81.898
lfoot -32.5672 9.7174
ltoes -12.659
20
root 5.46094 14.29 19.3809 7.4683 -3.58817 -0.717807
lowerback 1.3493 -0.953878 1.5727
upperback -4.24749 -1.19892 0.396741
thorax -5.16816 -0.652793 -0.400002
lowerneck -19.5167 -1.0761 -4.23024
upperneck 22.6827 -1.20025 3.81954
head 10.5604 -0.451716 1.90029
rclavicle -9.47799e-015 1.68967e-015
rhumerus 28.513 22.149 -38.6782
rradius 84.5339
rwrist -14.2578
rhand 30.1644 -10.5757
rfingers 7.12502
rthumb 53.8547 -29.5115
lclavicle -9.47799e-015 1.68967e-015
lhumerus 14.8144 -14.4604 53.666
lradius 90.0817
lwrist 4.028
lhand 32.4703 18.208
lfingers 7.12502
lthumb 55.9131 35.665
rfemur -41.0948 -13.5579 18.6271
rtibia 76.6554
rfoot -33.5733 10.7398
rtoes -11.657
lfemur -39.1036 14.3574 -16.6722
ltibia 81.9059
lfoot -32.5918 9.70264
ltoes -12.563
21
root 5.46332 14.2886 19.3826 7.46548 -3.55006 -0.720335
lowerback 1.33555 -0.958127 1.57948
upperback -4.25007 -1.20431 0.40275
thorax -5.16314 -0.655598 -0.397486
lowerneck -19.4915 -1.07927 -4.21333
upperneck 22.7011 -1.19763 3.76708
head 10.5618 -0.455826 1.87912
rclavicle 1.43195e-014 -1.15295e-014
rhumerus 28.5561 22.1105 -38.6624
rradius 84.5196
rwrist -14.2514
rhand 30.0965 -10.508
rfingers 7.12502
rthumb 53.7937 -29.4846
lclavicle 1.43195e-014 -1.15295e-014
lhumerus 14.8888 -14.3686 53.7746
lradius 90.0498
lwrist 3.9818
lhand 32.3418 18.1899
lfingers 7.12502
lthumb 55.7991 35.7343
rfemur -41.0733 -13.577 18.6354
rtibia 76.6539
rfoot -33.5964 10.659
rtoes -11.4807
lfemur -39.1079 14.3513 -16.6903
ltibia 81.9203
lfoot -32.6158 9.69102
ltoes -12.4446
22
root 5.46549 14.2868 19.384 7.46336 -3.50476 -0.728018
lowerback 1.32156 -0.962376 1.58777
upperback -4.25245 -1.20952 0.411278
thorax -5.15776 -0.658318 -0.393224
lowerneck -19.4489 -1.08381 -4.19033
upperneck 22.7055 -1.19805 3.71017
head 10.5549 -0.461434 1.85463
rclavicle 5.46891e-015 1.98785e-016
rhumerus 28.5936 22.0677 -38.6471
rradius 84.5055
rwrist -14.2349
rhand 30.0457 -10.4366
rfingers 7.12502
rthumb 53.7481 -29.4436
lclavicle 5.46891e-015 1.98785e-016
lhumerus 14.9683 -14.2795 53.8997
lradius 90.0209
lwrist 3.9042
lhand 32.2202 18.1703
lfingers 7.12502
lthumb 55.6912 35.7969
rfemur -41.0546 -13.6114 18.6576
rtibia 76.6581
rfoot -33.6214 10.5599
rtoes -11.3207
lfemur -39.1169 14.3444 -16.7027
ltibia 81.9363
lfoot -32.6447 9.68458
ltoes -12.3064
